<svg width="47" height="150" viewBox="0 0 47 150" fill="none" xmlns="http://www.w3.org/2000/svg">
<path d="M2.352 89V87.944H6.864V22.856H2.352V21.8H19.344C20.784 21.8 22.272 22.104 23.808 22.712C25.344 23.32 26.768 24.328 28.08 25.736C29.424 27.144 30.496 29.048 31.296 31.448C32.128 33.816 32.544 36.76 32.544 40.28C32.544 43.896 32.128 47.016 31.296 49.64C30.464 52.232 29.376 54.36 28.032 56.024C26.72 57.688 25.28 58.92 23.712 59.72C22.176 60.488 20.72 60.872 19.344 60.872H14.016V87.944H18.432V89H2.352ZM14.016 59.816H17.52C18.736 59.816 19.92 59.048 21.072 57.512C22.224 55.976 23.168 53.752 23.904 50.84C24.64 47.928 25.008 44.392 25.008 40.232C25.008 36.296 24.672 33.048 24 30.488C23.328 27.928 22.448 26.024 21.36 24.776C20.304 23.496 19.136 22.856 17.856 22.856H14.016V59.816Z" fill="#C1A4A4"/>
<path d="M13.104 127V125.944H17.52V60.856H13.104V59.8H28.848V60.856H24.672V93.256L39.216 60.856H34.704V59.8H44.784V60.856H40.56L28.8 87.88L28.992 85.528L42 125.944H45.648V127H30.864V125.944H34.608L24.336 93.88L24.672 93.832V125.944H28.608V127H13.104Z" fill="#C1A4A4"/>
</svg>
